<svg version="1.1" id="Camada_1" xmlns="http://www.w3.org/2000/svg" xmlns:xlink="http://www.w3.org/1999/xlink" x="0px" y="0px"
	 viewBox="0 0 38 38.3" style="enable-background:new 0 0 38 38.3;" xml:space="preserve">
<path d="M36.4,9.4l-7.1-1.1l-4.3-7c-0.2-0.4-0.5-0.7-0.9-0.9c-0.4-0.2-0.8-0.3-1.2-0.3l-18,0.1c-0.5,0-1,0.2-1.4,0.5
	C3,1.1,2.7,1.5,2.6,2L0.5,8v14h4.3c0.3,1.1,1,2,1.9,2.7c0.9,0.7,2,1,3.2,1c1.1,0,2.2-0.4,3.2-1C14,24,14.6,23.1,15,22h8
	c0.3,1.1,1,2,1.9,2.7c0.9,0.7,2,1,3.2,1s2.2-0.4,3.2-1c0.9-0.7,1.6-1.6,1.9-2.7H38V11.3c0-0.4-0.2-0.9-0.4-1.2
	C37.3,9.7,36.9,9.5,36.4,9.4z M16.8,2.7l6.2,0l3.4,5.6l-9.6,0V2.7z M4.9,2.8l9.3-0.1v5.6l-11.2,0L4.9,2.8z M9.9,23.3
	c-0.6,0-1.1-0.2-1.6-0.5c-0.5-0.3-0.8-0.7-1-1.3C7.1,21,7,20.4,7.1,19.9c0.1-0.5,0.4-1,0.8-1.4c0.4-0.4,0.9-0.7,1.4-0.8
	c0.5-0.1,1.1-0.1,1.6,0.2c0.5,0.2,1,0.6,1.3,1c0.3,0.5,0.5,1,0.5,1.6c0,0.7-0.3,1.5-0.8,2C11.3,23,10.6,23.2,9.9,23.3z M28,23.3
	c-0.6,0-1.1-0.2-1.6-0.5c-0.5-0.3-0.8-0.7-1-1.3c-0.2-0.5-0.3-1.1-0.2-1.6c0.1-0.5,0.4-1,0.8-1.4c0.4-0.4,0.9-0.7,1.4-0.8
	c0.5-0.1,1.1-0.1,1.6,0.2c0.5,0.2,1,0.6,1.3,1c0.3,0.5,0.5,1,0.5,1.6c0,0.7-0.3,1.5-0.8,2C29.5,23,28.8,23.2,28,23.3z M35.5,19.5
	h-2.3c-0.2-1.2-0.9-2.3-1.8-3.1c-1-0.8-2.2-1.2-3.4-1.2s-2.5,0.4-3.4,1.2c-1,0.8-1.6,1.9-1.8,3.1h-7.7c-0.2-1.2-0.9-2.3-1.8-3.1
	c-1-0.8-2.2-1.2-3.4-1.2c-1.2,0-2.5,0.4-3.4,1.2c-1,0.8-1.6,1.9-1.8,3.1H3v-8.7l25.8,0l6.7,1V19.5z"/>
<g>
	<path d="M7.8,33.8H3.6l-0.8,1.9H1.2l3.8-8.4h1.5l3.8,8.4H8.6L7.8,33.8z M7.3,32.6l-1.6-3.7l-1.6,3.7H7.3z"/>
	<path d="M11.3,27.4h1.6v7.1h4.4v1.3h-6V27.4z"/>
	<path d="M23.9,27.7c0.5,0.2,1,0.6,1.2,1c0.3,0.4,0.4,1,0.4,1.6c0,0.6-0.1,1.1-0.4,1.6c-0.3,0.5-0.7,0.8-1.2,1s-1.2,0.4-1.9,0.4
		h-1.9v2.4h-1.6v-8.4H22C22.7,27.4,23.3,27.5,23.9,27.7z M23.5,31.6c0.4-0.3,0.5-0.7,0.5-1.2s-0.2-0.9-0.5-1.2
		c-0.4-0.3-0.9-0.4-1.5-0.4h-1.8V32h1.8C22.6,32,23.1,31.9,23.5,31.6z"/>
	<path d="M27.1,27.4h1.6v8.4h-1.6V27.4z"/>
	<path d="M31.7,35.6c-0.6-0.2-1.1-0.4-1.4-0.7l0.5-1.2c0.3,0.3,0.8,0.5,1.3,0.7s1,0.3,1.5,0.3c0.6,0,1.1-0.1,1.4-0.3
		c0.3-0.2,0.5-0.5,0.5-0.8c0-0.2-0.1-0.4-0.3-0.6c-0.2-0.2-0.4-0.3-0.7-0.4c-0.3-0.1-0.6-0.2-1.1-0.3c-0.6-0.2-1.2-0.3-1.6-0.5
		c-0.4-0.2-0.7-0.4-1-0.7c-0.3-0.3-0.4-0.8-0.4-1.3c0-0.5,0.1-0.9,0.4-1.3c0.3-0.4,0.6-0.7,1.1-0.9c0.5-0.2,1.1-0.3,1.9-0.3
		c0.5,0,1,0.1,1.5,0.2s0.9,0.3,1.3,0.6l-0.5,1.2c-0.4-0.2-0.8-0.4-1.2-0.5c-0.4-0.1-0.8-0.2-1.2-0.2c-0.6,0-1.1,0.1-1.4,0.3
		c-0.3,0.2-0.4,0.5-0.4,0.8c0,0.2,0.1,0.4,0.3,0.6c0.2,0.2,0.4,0.3,0.7,0.4c0.3,0.1,0.6,0.2,1.1,0.3c0.6,0.1,1.1,0.3,1.5,0.5
		c0.4,0.2,0.7,0.4,1,0.7s0.4,0.8,0.4,1.3c0,0.5-0.1,0.9-0.4,1.3s-0.6,0.7-1.1,0.9c-0.5,0.2-1.1,0.3-1.9,0.3
		C32.9,35.9,32.3,35.8,31.7,35.6z"/>
</g>
</svg>
