<svg version="1.1" id="Camada_1" xmlns="http://www.w3.org/2000/svg" xmlns:xlink="http://www.w3.org/1999/xlink" x="0px" y="0px"
	 viewBox="0 0 50 50" style="enable-background:new 0 0 50 50;" xml:space="preserve">
<g>
	<path d="M42.9,28.3c-5.1,0-10.1,0-15.2,0H27c0.4-0.4,0.7-0.7,1-1.1c-0.4-0.4-0.8-0.8-1.2-1.2c-0.7,0.7-1.3,1.3-1.9,2
		c-0.2,0.2-0.4,0.3-0.7,0.3c-3,0-6,0-9,0c-3.4,0-6.3-2.5-6.9-5.8c-0.6-3.5,1.3-6.8,4.6-8c1.9-0.7,3.8-0.3,5.8-0.4
		c-0.4,0.4-0.7,0.8-1,1.1c0.4,0.4,0.7,0.8,1.2,1.2c0.7-0.7,1.3-1.3,1.9-2c0.1-0.1,0.3-0.3,0.5-0.3c0.7,0,1.3,0,2,0
		c0.3,3.9,1.9,7,4.9,9.5c3,2.4,6.4,3.4,10.2,2.9c6.4-0.8,11.5-6.5,11.5-13.1c0.1-6.7-4.8-12.4-11.4-13.3c-3.3-0.5-6.3,0.2-9.1,2
		c-3.7,2.4-5.7,5.9-6.1,10.4c-0.4,0-0.8,0-1.2,0c-0.7,0.1-1.2-0.1-1.6-0.7c-0.5-0.6-1-1.1-1.5-1.5c-0.4,0.4-0.8,0.7-1.3,1.2
		c0.4,0.3,0.7,0.6,1.1,0.9c-0.2,0.1-0.4,0.1-0.6,0.1c-1.3,0-2.6,0-3.9,0.1c-4.9,0.6-8.4,5.5-7.4,10.3c0.9,4.2,4.4,7,8.7,7.1
		c2.9,0,5.8,0,8.7,0c0.3,0,0.6,0.1,0.8,0.3c0.7,0.6,1.3,1.3,1.9,1.9c0.4-0.4,0.8-0.8,1.2-1.1c-0.3-0.3-0.6-0.7-1-1.1
		c0.2,0,0.2,0,0.3,0c5.2,0,10.4,0,15.6,0c0.4,0,0.8,0.1,1.1,0.1c2.2,0.6,3.7,2.7,3.4,4.9c-0.3,2.3-2.2,4.1-4.5,4.1
		c-2.4,0-4.9,0-7.3,0c-0.2,0-0.4-0.1-0.6-0.2c-0.7-0.6-1.3-1.3-1.9-1.9c-0.4,0.4-0.8,0.7-1.3,1.2c0.4,0.3,0.7,0.6,1,0.9
		c0,0,0,0.1-0.1,0.1H20v1.7h12.9c-0.4,0.4-0.7,0.7-1,1c0.4,0.4,0.7,0.8,1.1,1.2c0.7-0.7,1.3-1.3,1.9-1.9c0.2-0.2,0.5-0.3,0.8-0.3
		c2.4,0,4.9,0,7.3,0c3.3,0,6-2.8,6.1-6.1C49.2,31.2,46.5,28.4,42.9,28.3z M34.8,16.3c0.8-0.8,1.7-1.6,2.5-2.4c0.3-0.3,0.3-0.7,0-1
		c-0.8-0.9-1.7-1.7-2.6-2.5c-0.4,0.4-0.7,0.8-1.1,1.2c0.3,0.3,0.6,0.6,1,1h-5.3c-0.2-3.1,3.4-6.5,7-6.6c4.3-0.1,7.8,3.2,7.8,7.4
		c0,4.3-3.4,7.6-7.7,7.6c-3.6-0.1-7.3-3.5-7.1-6.6h5.4c-0.4,0.4-0.8,0.6-1.2,0.9C34,15.6,34.4,15.9,34.8,16.3z M32,21.2
		c1.9,1.2,4,1.5,6.2,1.2c4.4-0.7,7.6-4.6,7.6-9.1c0-4.4-3.3-8.3-7.7-9c-2.6-0.4-5,0.2-7.1,1.8c-2.1,1.6-3.2,3.8-3.5,6.4h-2.4
		c0.1-4.5,4-10.5,11-10.8c6.7-0.3,12.2,5,12.2,11.6c0,6.6-5.4,12-12.1,11.7c-7-0.2-11-6.2-11.1-10.8h2.4
		C27.9,17.2,29.4,19.6,32,21.2z"/>
	<path d="M17.7,39.1c-5.4-3-10.8-5.9-16.2-8.9c-0.4-0.2-0.8-0.4-1.2,0C-0.1,30.6,0,31,0.2,31.4c0.7,1.6,1.4,3.2,2.1,4.8
		c0.1,0.3,0.1,0.5-0.1,0.7c-0.6,0.8-1.2,1.6-1.8,2.4c-0.5,0.6-0.5,0.8,0,1.5c0.5,0.7,1,1.4,1.5,2c0.4,0.5,0.5,0.9,0.2,1.5
		c-0.7,1.5-1.3,3-1.9,4.5C-0.2,49.4,0.2,50,1,50c0.1-0.1,0.4-0.2,0.6-0.3c5.4-2.9,10.7-5.9,16.1-8.8c0.4-0.2,0.7-0.4,0.7-0.9
		C18.3,39.6,18,39.3,17.7,39.1z M2.7,32.8c2.9,1.6,5.8,3.2,8.8,4.8c0,0,0,0.1,0,0.1c-1.1-0.2-2.1-0.5-3.2-0.7
		c-1.3-0.3-2.6-0.6-3.9-0.9c-0.2,0-0.4-0.2-0.5-0.4C3.4,34.7,3,33.8,2.7,32.8C2.7,32.9,2.7,32.8,2.7,32.8z M2.6,47.3
		c0.5-1.1,0.9-2.1,1.3-3.1c0-0.1,0.2-0.2,0.3-0.2c2.4-0.6,4.8-1.1,7.2-1.7c0,0,0,0.1,0.1,0.1C8.5,44,5.6,45.6,2.6,47.3z M6.8,41.7
		c-0.9,0.2-1.9,0.5-2.8,0.6c-0.2,0-0.4-0.1-0.5-0.2c-0.5-0.7-1-1.4-1.6-2.1c0.6-0.7,1.1-1.5,1.7-2.3c0.1-0.1,0.2-0.1,0.3-0.1
		c3.2,0.8,6.4,1.5,9.7,2.3c0,0,0,0,0.1,0.1C11.3,40.6,9.1,41.1,6.8,41.7z"/>
	<path d="M36.7,18.3v-1.6c1.1-0.1,2-0.5,2.6-1.3c0.5-0.6,0.7-1.4,0.7-2.2c-0.1-1.7-1.3-3-3.3-3.2V8.4c2.4-0.3,4.9,2.1,5,4.7
		C41.8,16,39.5,18.4,36.7,18.3z"/>
</g>
</svg>
