<?xml version="1.0" encoding="utf-8"?>
<!-- Generator: Adobe Illustrator 24.0.2, SVG Export Plug-In . SVG Version: 6.00 Build 0)  -->
<svg version="1.1" id="Camada_1" xmlns="http://www.w3.org/2000/svg" xmlns:xlink="http://www.w3.org/1999/xlink" x="0px" y="0px"
	 viewBox="0 0 50 50" style="enable-background:new 0 0 50 50;" xml:space="preserve">
<g>
	<path d="M155.9,34.6c0-1-0.2-1.9-0.7-2.7c-1.1-2-2.9-2.9-5.1-3.2c-1.5-0.2-3.1-0.3-4.5-0.9c-1.3-0.6-1.3-0.6-1.3-2
		c0-0.4,0.1-0.6,0.4-0.8c1.3-1,2.1-2.4,2.6-3.9c0.1-0.5,0.2-1,0.3-1.5c2-0.4,3.1-1.3,3.3-3c0.2-1.5-0.6-2.7-2.3-3.6
		c0-0.4,0-0.8,0-1.2c0-0.7-0.1-1.3-0.1-2c0-0.7,0-1.4,0-2.1C148.3,4.5,145.9,2,143,2c-2.4-0.1-4.9-0.1-7.3,0
		c-2.7,0.1-5.1,2.2-5.4,4.8c-0.2,2-0.2,4-0.3,6.1c-1.8,1-2.6,2.2-2.3,3.7c0.3,1.6,1.3,2.6,3.3,2.9c0,0,0.1,0.1,0.1,0.1
		c0.3,2.2,1.3,4.1,3.1,5.5c0.1,0.1,0.2,0.2,0.2,0.3c0,0.6,0,1.1,0,1.7c0,0.1-0.1,0.2-0.1,0.2c-0.9,0.4-1.9,0.9-2.8,1.2
		c-1,0.3-2.1,0.5-3.2,0.7c-1.2,0.2-2.3,0.6-3.3,1.4c-1.2,1-1.9,2.3-2.2,3.9c-0.5-0.3-0.9-0.7-1.3-0.9c-0.3-0.2-0.4-0.4-0.4-0.7
		c0-3.9,0-7.8,0-11.7c0-0.4,0.1-0.6,0.5-0.9c3.7-2.4,5.4-6.9,4.1-11.1c-0.3-1-0.9-1.2-1.7-0.4c-1.7,1.6-3.3,3.3-5,4.9
		c-0.7,0.7-1.3,0.7-2,0c-0.9-0.9-1.7-1.7-2.6-2.6c-0.8-0.8-0.8-1.4,0-2.1c1.7-1.7,3.3-3.3,5-5c0.6-0.6,0.4-1.3-0.4-1.6
		c-1.3-0.4-2.7-0.5-4.1-0.3c-4.2,0.5-7.6,3.6-8.5,7.7c-0.9,4.1,0.8,8.3,4.4,10.6c0.3,0.2,0.4,0.4,0.4,0.7c0,3.9,0,7.8,0,11.7
		c0,0.4-0.1,0.6-0.4,0.8c-3.7,2.4-5.4,6.9-4.2,11.1c0.3,1,0.9,1.2,1.7,0.4c1.7-1.6,3.3-3.3,5-4.9c0.7-0.7,1.3-0.7,2,0
		c0.9,0.9,1.7,1.7,2.6,2.6c0.8,0.8,0.8,1.4,0,2.1c-1.6,1.7-3.3,3.3-4.9,5c-0.7,0.7-0.6,1.4,0.5,1.7c3.4,0.9,6.5,0.2,9.2-2
		c0.1-0.1,0.3-0.2,0.4-0.3c0.1,0.2,0.2,0.3,0.2,0.5c0.6,1.1,1.5,1.9,2.7,2.1c1.2,0.2,2.5,0.2,3.7,0.1c1.9-0.3,3.7-0.7,5.6-1.1
		c1.1-0.2,2.2-0.5,3.3-0.7v1.9h1.7V50c1.5,0.3,2.9,0.6,4.4,0.9c2.4,0.5,4.8,1.2,7.3,1c2.3-0.1,4.1-1.9,4.1-4.2
		C156,43.4,155.9,39,155.9,34.6z M147.6,14.5c0.9,0,1.6,0.7,1.6,1.6c0,0.9-0.6,1.6-1.6,1.7V14.5z M130.9,17.7
		c-1-0.1-1.6-0.7-1.6-1.6c0-0.9,0.7-1.6,1.6-1.6V17.7z M122.6,46.6c0,0.2-0.1,0.4-0.2,0.6c-1.9,2.2-4.2,3.3-7.1,3.1
		c-0.1,0-0.3-0.1-0.4-0.1c0.2-0.2,0.3-0.3,0.4-0.4c1.2-1.2,2.5-2.5,3.7-3.7c1.3-1.3,1.3-3,0-4.3c-0.9-0.9-1.9-1.9-2.8-2.8
		c-1.2-1.2-2.9-1.2-4.2,0c-1.3,1.3-2.5,2.5-3.8,3.8c-0.1,0.1-0.2,0.2-0.4,0.4c-0.2-1.4-0.1-2.7,0.4-3.9c0.7-2,1.9-3.5,3.8-4.5
		c0.5-0.3,0.8-0.7,0.8-1.3c0-4.3,0-8.6,0-13c0-0.6-0.2-1-0.7-1.2c-3.1-1.7-4.7-5.1-4.2-8.7c0.5-3.3,3.3-6.1,6.7-6.8
		c0.9-0.2,1.7-0.1,2.6-0.2c0,0.1,0,0.1,0,0.2c-0.1,0.1-0.2,0.3-0.3,0.4c-1.2,1.2-2.5,2.5-3.7,3.7c-1.3,1.3-1.3,3,0,4.3
		c0.9,0.9,1.8,1.8,2.7,2.7c1.3,1.3,3,1.3,4.3,0c1.2-1.2,2.5-2.5,3.7-3.7c0.1-0.1,0.2-0.2,0.4-0.4c0.2,1.1,0.1,2.1-0.1,3.1
		c-0.6,2.3-1.9,4.1-4,5.2c-0.6,0.3-0.8,0.7-0.8,1.3c0,4.3,0,8.6,0,13c0,0.6,0.2,0.9,0.7,1.2c0.8,0.6,1.6,1.3,2.4,2
		c0.2,0.1,0.2,0.4,0.2,0.6C122.6,40.4,122.6,43.5,122.6,46.6z M146.8,36.8c0.2-2.1,0.3-4.2,0.5-6.3c0-0.1,0-0.3,0.1-0.5
		c1.2,0.2,2.5,0.3,3.7,0.6c1.6,0.3,2.6,1.4,3,2.9c0.1,0.3,0.1,0.5,0.1,0.8c0,1.7,0,3.4,0,5.2h-4.1V37h-1.7v2.4h-6.7v1.7h4.8
		c0,0.1,0,0.1,0,0.2c-0.7,0.2-1.3,0.6-2.1,0.7c-1.5,0.2-3,0.3-4.5,0.4c-0.4-2.5,1.1-4.5,1.6-6.8c0.5,0.3,0.9,0.5,1.4,0.8
		c0.7,0.4,1.5,0.8,2.2,1.3C146.1,38,146.7,37.7,146.8,36.8z M154.2,41.1v2.4c-2.4-0.2-4.8-0.4-7.2-0.6c0,0,0-0.1,0-0.1
		c1.3-0.6,2.7-1.2,4-1.7c0.2-0.1,0.5-0.1,0.8-0.1C152.6,41.1,153.4,41.1,154.2,41.1z M137.5,32.8c-0.5-1.5-0.9-2.9-1.4-4.4
		c-0.2-0.7-0.2-1.3-0.3-2.2c2.3,0.9,4.5,1,6.9,0c-0.1,0.7-0.1,1.4-0.3,2c-0.4,1.5-0.9,3-1.4,4.6H137.5z M145.6,29.5
		c0.1,0,0.2,0.2,0.1,0.3c-0.2,1.9-0.3,3.8-0.5,5.7c-1-0.6-1.9-1.1-2.8-1.6c0.5-1.7,1-3.3,1.6-5.1C144.5,29.1,145,29.3,145.6,29.5z
		 M131.9,6.7c0.3-1.8,2-3.1,3.9-3.1c2.3,0,4.6,0,6.9,0c2.1,0,3.9,1.7,4,3.8c0.1,0.9,0,1.9,0,2.8h-3.3c0-0.8,0-1.5,0-2.2
		c0-0.8-0.3-1.1-1.1-1.1c-2.1,0-4.1,0-6.2,0c-0.8,0-1.1,0.3-1.1,1.1c0,0.7,0,1.5,0,2.2h-3.4C131.8,9.1,131.7,7.9,131.9,6.7z
		 M141.7,8.6v1.6h-5V8.6H141.7z M132.6,18.7c0-1.1,0-2.2,0-3.3c0.6,0,1.1-0.1,1.7-0.1c0,0.7,0.1,1.3,0.9,1.5c0.5,0.2,0.9,0,1.2-0.3
		c0.5-0.5,0.5-1,0.2-1.6c1.8-0.3,3.6-0.3,5.4,0c-0.2,0.5-0.4,1.1,0,1.5c0.2,0.2,0.5,0.5,0.9,0.5c0.8,0.2,1.3-0.4,1.4-1.6
		c0.5,0,1.1,0,1.7,0.1c-0.1,1.6,0,3.3-0.3,4.8c-0.7,3.2-3.9,5.4-7.1,5C135.2,24.8,132.7,22.1,132.6,18.7z M133.1,29.7
		c0.5-0.3,1-0.5,1.5-0.7c0.2,0.7,0.4,1.4,0.6,2.1c0.3,0.9,0.5,1.7,0.8,2.6c0,0.1,0,0.4-0.1,0.4c-0.8,0.5-1.7,1-2.6,1.5
		c-0.2-1.9-0.3-3.7-0.5-5.6C132.9,29.9,133,29.7,133.1,29.7z M124.4,34.4c0.1-1.5,1.1-2.6,2.5-3.1c1.4-0.5,2.8-0.7,4.3-1.1
		c0.1,1.4,0.2,2.7,0.3,4c0.1,0.8,0.1,1.7,0.2,2.5c0.1,0.9,0.7,1.2,1.4,0.8c1.1-0.6,2.1-1.2,3.2-1.8c0.1,0,0.2-0.1,0.3-0.1
		c0.1,0.3,0.2,0.6,0.3,0.9c0.4,1.1,0.8,2.2,1.1,3.3c0.2,0.8,0.2,1.7,0.3,2.5c-1.7-0.1-3.3-0.2-4.8-0.4c-0.8-0.1-1.5-0.7-2.3-0.9
		c-1.1-0.3-1.6-0.9-1.4-2.1c0.1-0.6,0-1.3,0-2h-1.6v2.6h-4.1C124.4,37.7,124.2,36,124.4,34.4z M132.4,49.6c-1.7,0.4-3.4,0.7-5.1,0.7
		c-1.9,0-3.3-1.1-3-3.4c0.9,0,1.9,0,2.8,0c0.1,0,0.3,0.2,0.4,0.3c0.8,1.2,2,1.5,3.4,1.4c1.3-0.1,2.7-0.1,4.1,0.4
		C134.1,49.2,133.3,49.4,132.4,49.6z M154.3,48c-0.1,1.3-1.2,2.2-2.5,2.3c-2.1,0.1-4.1-0.4-6.1-0.8c-3.9-0.8-7.9-1.7-11.8-2.4
		c-1.2-0.2-2.4-0.1-3.6-0.1c-0.4,0-0.7-0.1-1-0.4c-1.6-1.6-0.8-1.2-3-1.3c-0.6,0-1.2,0-1.9,0v-4.2c1.5,0.1,2.9-0.2,4.4,0.5
		c1.2,0.6,2.5,1.1,3.8,1.6c0.6,0.2,1.2,0.4,1.8,0.5c4.3,0.4,8.6,0.7,12.9,1c2.3,0.2,4.7,0.4,7.1,0.6C154.3,46.2,154.3,47.1,154.3,48
		z"/>
	<rect x="115.2" y="19.5" width="1.6" height="14.9"/>
	<path d="M142,20.6c-1.7,0.6-3.4,0.6-5.2,0.5v-1.6c1.6-0.1,3.1-0.3,4.8-0.4C141.7,19.5,141.8,20,142,20.6z"/>
	<rect x="135.1" y="38.6" width="1.6" height="1.6"/>
</g>
<g>
	<path d="M-274.5,30.1c-0.1-0.2-0.2-0.4-0.3-0.6c1.7-1.1,2.2-2,2.1-3.9c0-0.8-0.1-1.6-0.2-2.4c-0.4-1.9,0-3.5,1.5-4.8
		c0.6-0.5,1-1.1,1.5-1.6c1.7-2.1,1.7-3.9,0-6.1c-0.7-0.8-1.4-1.6-2.2-2.4c-0.8-0.8-1-1.8-0.9-2.9c0.1-1.2,0.3-2.5,0.3-3.7
		c0-2.2-0.9-3.5-3-4.1c-1.2-0.4-2.4-0.6-3.6-0.8c-1.1-0.2-1.9-0.8-2.4-1.8c-0.3-0.6-0.6-1.2-1-1.8c-0.4-0.7-0.9-1.4-1.4-2.1
		c-1-1.1-2.2-1.5-3.7-1.2c-0.6,0.1-1.2,0.4-1.7,0.6c-0.8,0.3-1.6,0.7-2.5,1.1c-1,0.4-2,0.4-3,0c-0.8-0.3-1.5-0.7-2.3-1
		c-0.4-0.2-0.8-0.4-1.3-0.5c-2-0.6-3.5-0.2-4.7,1.5c-0.7,1-1.3,2.1-1.9,3.2c-0.6,1.1-1.5,1.7-2.7,2c-1.2,0.2-2.4,0.5-3.6,0.8
		c-2,0.6-3,1.9-3,4.1c0,1.1,0.1,2.3,0.3,3.4c0.2,1.4-0.1,2.5-1.1,3.6c-0.8,0.8-1.5,1.6-2.2,2.5c-1.4,1.9-1.4,3.5,0,5.4
		c0.7,0.9,1.4,1.7,2.2,2.5c1,1,1.3,2.1,1.1,3.5c-0.2,1.2-0.3,2.4-0.3,3.6c0,1.5,0.6,2.7,1.9,3.4c0.1,0,0.1,0.1,0.2,0.2
		c-0.1,0.2-0.2,0.4-0.3,0.6c-1.6,2.8-3.2,5.6-4.9,8.4c-0.3,0.4-0.4,0.9-0.1,1.3c0.3,0.4,0.8,0.4,1.3,0.3c1.5-0.4,3-0.8,4.5-1.2
		c1-0.3,2.1-0.6,3.2-0.8c0.1,0.3,0.2,0.5,0.2,0.7c0.6,2.3,1.2,4.5,1.8,6.8c0.1,0.6,0.3,1,1,1.1c0.6,0.1,0.9-0.4,1.1-0.9
		c1.3-2.3,2.7-4.6,4-6.9c0.5-0.9,1-1.5,2.1-1.8c1.1-0.2,2.1-0.8,3.1-1.3c1.2-0.6,2.4-0.6,3.7,0c0.4,0.2,0.9,0.4,1.3,0.6
		c0.9,0.3,1.7,0.6,2.6,1c0.3,0.1,0.5,0.3,0.7,0.5c1.6,2.7,3.1,5.3,4.6,8c0.3,0.4,0.5,0.8,1.1,0.8c0.6-0.1,0.8-0.6,0.9-1.1
		c0.2-1,0.5-1.9,0.8-2.9c0.4-1.5,0.8-3.1,1.3-4.6c0.2,0,0.4,0.1,0.5,0.1c2.4,0.6,4.8,1.3,7.2,1.9c0.7,0.2,1.4-0.2,1.4-0.9
		c0-0.3-0.1-0.6-0.3-0.9C-271.2,35.7-272.8,32.9-274.5,30.1z M-305.3,43.2c-0.1-0.3-0.2-0.5-0.2-0.7c-0.5-1.8-1-3.7-1.5-5.5
		c-0.3-1-0.6-1.2-1.6-0.9c-2,0.5-4.1,1.1-6.2,1.6c0.1-0.2,0.1-0.4,0.2-0.5c1.3-2.2,2.6-4.4,3.8-6.7c0.2-0.3,0.4-0.5,0.8-0.4
		c0.7,0.2,1.4,0.3,2,0.4c1.1,0.2,2,0.8,2.5,1.8c0.2,0.4,0.5,0.8,0.7,1.2c0.7,1.3,1.5,2.7,2.8,3.5C-303,39.2-304.1,41.2-305.3,43.2z
		 M-288,35.4c-0.9-0.3-1.8-0.7-2.6-1.1c-2.1-1-4.1-1-6.1,0c-0.9,0.5-1.8,0.8-2.8,1.2c-0.9,0.3-1.7,0.1-2.3-0.7
		c-0.5-0.7-1-1.4-1.3-2.1c-1.1-2.5-3.1-3.9-5.8-4.2c-0.6-0.1-1.2-0.2-1.7-0.4c-1.6-0.4-2-1-2-3c0.1-0.8,0.2-1.9,0.3-3
		c0.2-1.7-0.3-3.2-1.5-4.5c-0.7-0.8-1.4-1.5-2.1-2.3c-1.1-1.3-1.1-2.1,0-3.4c0.5-0.6,1.1-1.3,1.6-1.8c1.8-1.7,2.3-3.7,1.9-6
		c-0.1-0.9-0.2-1.9-0.2-2.8c0-1,0.5-1.7,1.4-1.9c1-0.3,2.1-0.5,3.1-0.7c2.1-0.4,3.7-1.5,4.7-3.4c0.4-0.9,0.9-1.7,1.5-2.5
		c0.8-1.1,1.4-1.3,2.7-0.9c0.8,0.3,1.6,0.6,2.4,1.1c2.1,1.1,4.2,1.1,6.4,0c0.9-0.5,2-0.8,3-1.2c0.7-0.2,1.3,0,1.8,0.5
		c0.4,0.4,0.7,0.9,1,1.3c0.4,0.6,0.7,1.2,1,1.8c0.9,1.8,2.5,2.9,4.5,3.2c0.9,0.2,1.9,0.4,2.8,0.6c1.5,0.4,1.9,1,1.9,2.6
		c-0.1,1.1-0.2,2.2-0.3,3.3c-0.2,1.6,0.3,3.1,1.4,4.3c0.6,0.6,1.1,1.2,1.7,1.8c0.3,0.4,0.7,0.8,1,1.3c0.5,0.7,0.5,1.5,0,2.2
		c-0.3,0.4-0.6,0.8-0.9,1.2c-0.4,0.4-0.7,0.8-1.1,1.2c-1.7,1.6-2.2,3.7-1.8,6c0.1,0.9,0.2,1.9,0.2,2.9c0,0.9-0.4,1.6-1.3,1.8
		c-1,0.3-1.9,0.6-2.9,0.7c-2.3,0.3-4,1.5-5,3.6c-0.4,0.9-0.9,1.7-1.5,2.5C-286.1,35.7-286.8,35.9-288,35.4z M-276.4,36.7
		c-0.7-0.2-1.5-0.4-2.2-0.6c-0.9-0.2-1.3,0-1.6,0.9c-0.5,2-1.1,3.9-1.6,5.9c0,0.1-0.1,0.2-0.1,0.4c-1.2-2.1-2.3-4-3.5-6
		c1.4-0.8,2.1-2.2,2.9-3.6c0.1-0.2,0.3-0.5,0.4-0.8c0.7-1.4,1.8-2.1,3.3-2.4c0.7-0.1,1.4-0.5,2-0.3c0.5,0.2,0.7,1.1,1.1,1.6
		c1,1.7,2,3.4,3,5.1c0.1,0.2,0.2,0.4,0.4,0.7C-273.8,37.4-275.1,37-276.4,36.7z"/>
	<path d="M-293.6-1.7c-8.5,0-15.4,6.9-15.4,15.4c0,8.5,6.9,15.3,15.4,15.3c8.5,0,15.4-6.9,15.4-15.3C-278.3,5.2-285.1-1.7-293.6-1.7
		z M-293.6,27c-7.4,0-13.4-6-13.4-13.4c0-7.4,6-13.4,13.4-13.3c7.3,0,13.3,6,13.3,13.4C-280.2,21-286.2,27-293.6,27z"/>
	<path d="M-284.3,8.8c-0.1,0.2-0.3,0.3-0.4,0.5c-3.4,3.4-6.7,6.7-10.1,10.1c-0.8,0.8-1.2,0.8-2,0c-1.9-1.9-3.9-3.9-5.8-5.8
		c-0.1-0.1-0.2-0.2-0.3-0.3c-0.4-0.4-0.4-1,0-1.4c0.4-0.4,1-0.4,1.4,0c0.9,0.9,1.8,1.8,2.7,2.7c1,1,1.9,1.9,2.9,2.9
		c0.2-0.2,0.4-0.3,0.5-0.5c3-3,6.1-6.1,9.1-9.1c0.2-0.2,0.3-0.3,0.5-0.5c0.4-0.3,0.9-0.2,1.2,0.2C-284,8-284,8.4-284.3,8.8z"/>
</g>
<g>
	<path d="M49.7,36.4c-1.3-2-3.8-2.7-5.9-1.7c-2.3,1.1-4.6,2.2-6.9,3.2c-0.2,0.1-0.3,0.2-0.5,0.2C35,35.9,33,35,30.4,35
		c-1.8,0-3.6-0.1-5.4-0.1c-1.4,0-2.7-0.4-4-1.1c-3-1.6-6.1-1.9-9.3-0.9c-0.7,0.2-1.4,0.5-2.1,0.8c0-0.5,0-0.9,0-1.4
		c0-0.7-0.3-1-1-1.1c-2.3-0.1-4.6-0.1-6.9-0.2c-1,0-1.3,0.2-1.3,1.2c0,0.2,0,0.4,0,0.6c-0.1,4.2-0.2,8.4-0.3,12.5
		c0,0.3-0.1,0.6-0.1,1v2.1c0.2,0.4,0.6,0.7,1.1,0.7c2.3,0.1,4.6,0.1,6.8,0.2c1,0,1.3-0.2,1.3-1.3c0-0.3,0.1-0.5,0.4-0.6
		c0.4-0.2,0.8-0.4,1.2-0.7c1-0.6,2-0.7,3.1-0.4c2.9,0.8,5.8,1.6,8.8,2.5c1.8,0.5,3.7,1.1,5.6,0.9c1.7-0.1,3.4-0.4,4.8-1.3
		C38.6,45,44,41.5,49.4,38C50.1,37.6,50.2,37.1,49.7,36.4z M7.4,47.4c-1.8-0.1-3.7-0.1-5.5-0.2c0.1-4.8,0.3-9.5,0.4-14.3
		C4.1,33,5.9,33,7.8,33.1C7.7,37.9,7.5,42.6,7.4,47.4z M45.3,38.5c-4.2,2.7-8.4,5.4-12.5,8.1c-1.9,1.2-4,1.6-6.2,1.3
		c-1.7-0.2-3.3-0.8-5-1.2c-2.4-0.6-4.7-1.3-7-2c-1.6-0.5-3.1-0.3-4.6,0.5c-0.2,0.1-0.3,0.2-0.6,0.3c0-0.2,0-0.4,0-0.5
		c0.1-2.9,0.2-5.7,0.2-8.6c0-0.3,0.1-0.5,0.4-0.6c3.1-1.8,6.3-2,9.6-0.5c1.3,0.6,2.5,1.3,4,1.4c0.7,0.1,1.5,0.1,2.2,0.1
		c1.8,0.1,3.6,0.1,5.4,0.1c1.8,0.1,3.3,1.1,3.9,2.7c0.1,0.2,0.1,0.3,0.2,0.5c-0.2,0-0.4,0-0.5,0c-3.1-0.1-6.2-0.2-9.3-0.2
		c-0.5,0-0.9,0.1-1.1,0.6c-0.3,0.6,0.2,1.2,0.9,1.3c0.9,0,1.8,0.1,2.7,0.1c2.6,0.1,5.3,0.1,7.9,0.2c1.1,0,1.5-0.4,1.4-1.5
		c0-0.2,0-0.4-0.1-0.6c0.7-0.3,1.3-0.6,2-1c1.8-0.9,3.7-1.7,5.5-2.6c1.1-0.5,2.3-0.3,3.2,0.5C46.9,37.4,46.1,37.9,45.3,38.5z"/>
	<path d="M46.3,13.6c-0.4-0.7-0.6-1.4-0.6-2.3c0-2.3-1-4-3-5.1c-0.8-0.4-1.4-1-1.8-1.7c-1.1-1.9-2.8-2.9-5-2.9c-1,0-1.9-0.2-2.7-0.7
		c-1.9-1.1-3.8-1.1-5.7,0c-0.9,0.5-1.8,0.7-2.8,0.7c-2.2,0-3.9,0.9-5,2.8c-0.5,0.8-1.1,1.4-1.9,1.8c-2,1.1-3,2.8-3,5
		c0,0.8-0.2,1.5-0.6,2.2c-1.3,2-1.3,4.1,0,6.1c0.4,0.6,0.6,1.3,0.6,2.1c-0.1,2.4,1,4.1,3,5.2c0.7,0.4,1.3,0.9,1.7,1.7
		c1.1,2,2.9,2.9,5.1,2.9c0.9,0,1.8,0.2,2.6,0.7c1.9,1.1,3.9,1.1,5.8,0c0.8-0.4,1.6-0.7,2.6-0.6c2.2,0,4-1,5.2-3
		c0.4-0.7,1-1.2,1.8-1.6c2-1.1,3-2.8,3-5c0-0.8,0.2-1.6,0.6-2.3C47.5,17.5,47.5,15.6,46.3,13.6z M44.7,18.6
		c-0.6,0.9-0.9,1.9-0.8,3.1c0.1,1.6-0.6,2.8-2.1,3.6c-1,0.5-1.8,1.3-2.4,2.3c-0.8,1.4-2,2.1-3.6,2.1c-1.2,0-2.4,0.3-3.4,0.9
		c-1.4,0.8-2.8,0.8-4.1,0c-1-0.6-2-0.9-3-0.9c-2,0.1-3.3-0.6-4.1-2.2c-0.5-0.9-1.2-1.6-2.2-2.1c-1.5-0.8-2.3-2-2.2-3.7
		c0-1-0.2-2-0.8-2.9c-0.9-1.4-0.9-2.8,0-4.2c0.6-0.9,0.9-1.9,0.8-3c-0.1-1.7,0.7-2.8,2.1-3.6c1-0.5,1.8-1.3,2.4-2.3
		c0.8-1.4,2-2.1,3.6-2.1c1.2,0,2.4-0.3,3.4-0.9c1.3-0.8,2.7-0.8,4.1,0c1.1,0.6,2.2,0.9,3.4,0.9c1.6,0,2.8,0.6,3.6,2
		c0.6,1,1.3,1.8,2.3,2.3c1.5,0.8,2.2,1.9,2.2,3.6c0,1.1,0.2,2.1,0.8,3C45.6,15.9,45.6,17.2,44.7,18.6z"/>
	<path d="M36.7,7.8c0,0.1-0.1,0.3-0.2,0.5c-3.6,5.8-7.2,11.6-10.9,17.4c-0.4,0.6-0.9,0.7-1.4,0.4c-0.5-0.3-0.6-0.8-0.2-1.4
		c3.6-5.8,7.2-11.6,10.9-17.4c0.3-0.5,0.7-0.7,1.1-0.5C36.4,6.9,36.7,7.3,36.7,7.8z"/>
	<path d="M38.5,18.3c-1.5-2.2-4.4-2.3-6.1-0.4c-1.7,1.9-1.6,5.2,0.3,6.9c1.5,1.4,3.6,1.4,5.1,0c1.1-1,1.5-2.2,1.5-3.3
		C39.4,20.1,39.1,19.1,38.5,18.3z M36.7,23.4c-0.8,0.9-2,0.9-2.8,0.1c-1.2-1.1-1.2-3.3,0-4.5c0.8-0.8,1.9-0.8,2.7,0
		c0.6,0.6,0.9,1.4,0.9,2.3C37.5,22,37.3,22.8,36.7,23.4z"/>
	<path d="M28.4,9c-1.5-2.2-4.3-2.3-6.1-0.4c-1.6,1.8-1.6,4.9,0,6.7c1.6,1.8,4.2,1.7,5.8-0.1c0.8-0.9,1.2-2,1.2-3.5
		C29.3,10.8,29,9.9,28.4,9z M26.7,14c-0.8,0.9-2,0.9-2.9,0c-1.1-1.1-1.1-3.2,0-4.4c0.9-0.9,2.1-0.9,2.9,0.1c0.5,0.6,0.8,1.3,0.7,2.1
		C27.5,12.7,27.2,13.4,26.7,14z"/>
</g>
</svg>
