<svg version="1.1" id="Camada_1" xmlns="http://www.w3.org/2000/svg" xmlns:xlink="http://www.w3.org/1999/xlink" x="0px" y="0px"
	 viewBox="0 0 50 50" style="enable-background:new 0 0 50 50;" xml:space="preserve">
<g>
	<path d="M49.6,22.5c-1.9-9.1-7.2-15.4-16-18.6c-6.3-2.3-12.5-1.7-18.6,1.2c-0.3,0.1-0.4,0.1-0.6-0.1c-1.1-1.1-2.1-2.2-3.2-3.2
		c-0.4-0.3-0.8-0.6-1.1-1H9.4c-0.6,0.3-1,0.8-1.2,1.4C7.7,3.7,7.1,5.3,6.5,6.8C6.4,7,6.2,7.2,6,7.3C4.4,7.9,2.8,8.5,1.2,9.1
		c-1.4,0.5-1.6,1.7-0.6,2.7C1.8,13,3,14.2,4.1,15.3c0.2,0.2,0.2,0.4,0.1,0.7c-5.3,10.9-2,23.9,8.1,30.7c3.5,2.4,7.4,3.8,11.6,4.1
		c0.1,0,0.2,0.1,0.4,0.1h3c1.1-0.2,2.2-0.3,3.3-0.5c9.6-1.9,17.3-9.8,18.9-19.5c0.2-0.9,0.3-1.8,0.4-2.7v-3
		C49.9,24.3,49.8,23.4,49.6,22.5z M15.8,18.7c1.1,1.1,2.2,2.2,3.3,3.3c0.2,0.2,0.1,0.4,0,0.6c-2.9,4.7-0.3,10.8,5.2,11.9
		c4.3,0.9,8.6-1.9,9.4-6.3c0.8-4.3-2.1-8.6-6.3-9.3c-2-0.4-3.9,0-5.7,1c-0.1,0.1-0.4,0.1-0.4,0c-1.2-1.1-2.3-2.3-3.5-3.5
		c4.9-4,12.7-4,17.7,1.3c4.8,5.1,4.7,13.2-0.3,18.2c-5,5-13.1,5.1-18.2,0.3c-5.3-5-5.3-12.9-1.3-17.7C15.7,18.6,15.7,18.6,15.8,18.7
		z M26.8,25.6c-1-1-1.9-1.9-2.9-2.9c-0.1-0.1-0.2-0.2-0.3-0.4c1.8-1.2,4.6-0.6,6.1,1.2c1.6,2,1.5,4.8-0.2,6.6
		c-1.7,1.8-4.6,2.1-6.6,0.6c-2-1.5-2.7-4.2-1.5-6.4c1.1,1.1,2.2,2.2,3.3,3.3c0.4,0.4,1,0.6,1.6,0.4c0.6-0.2,0.9-0.6,1-1.2
		C27.4,26.4,27.2,25.9,26.8,25.6z M9.3,7.7c0.3-0.9,0.7-1.8,1-2.7c0.1,0.1,0.3,0.2,0.3,0.3c1.4,1.4,2.9,2.9,4.3,4.3
		c0.1,0.1,0.3,0.4,0.2,0.5c-0.2,1.1-0.4,2.1-0.6,3.3c-1-1-2-2-2.9-2.9C11,9.7,10.2,9,9.5,8.2C9.4,8.1,9.3,7.8,9.3,7.7z M4.1,11.2
		c1-0.4,1.9-0.7,2.9-1.1c0.1,0,0.2,0,0.3,0.1c1.7,1.7,3.5,3.5,5.3,5.3c-1.1,0.2-2.2,0.4-3.2,0.6c-0.1,0-0.3,0-0.4-0.1
		C7.3,14.4,5.8,12.8,4.1,11.2z M41.6,40.9c-6.9,7.9-18.9,9.4-27.6,3.4C4.9,38.1,2.5,26.7,6.6,17.8C6.8,18,7,18.2,7.2,18.4
		c0.6,0.7,1.2,0.8,2.1,0.6c0.9-0.2,1.8-0.3,2.8-0.5c-2.4,4.4-2.9,8.9-1.2,13.6c1.3,3.6,3.6,6.3,6.8,8.3c6.6,4,15,2.7,20.2-3
		c5.1-5.7,5.5-14.2,0.9-20.3c-4.6-6.3-13.5-8.6-21-4.3c0.2-0.9,0.3-1.8,0.5-2.7c0.2-0.9,0-1.6-0.7-2.2c-0.2-0.1-0.4-0.3-0.6-0.4
		c6.8-3.4,17.5-3,24.7,5C48.9,20.7,48.9,32.6,41.6,40.9z"/>
</g>
</svg>
