<?xml version="1.0" encoding="utf-8"?>
<!-- Generator: Adobe Illustrator 24.0.2, SVG Export Plug-In . SVG Version: 6.00 Build 0)  -->
<svg version="1.1" id="Camada_1" xmlns="http://www.w3.org/2000/svg" xmlns:xlink="http://www.w3.org/1999/xlink" x="0px" y="0px"
	 viewBox="0 0 50 50" style="enable-background:new 0 0 50 50;" xml:space="preserve">
<g>
	<path d="M50,32.6c0-1-0.2-1.9-0.7-2.7c-1.1-2-2.9-2.9-5.1-3.2c-1.5-0.2-3.1-0.3-4.5-0.9c-1.3-0.6-1.3-0.6-1.3-2
		c0-0.4,0.1-0.6,0.4-0.8c1.3-1,2.1-2.4,2.6-3.9c0.1-0.5,0.2-1,0.3-1.5c2-0.4,3.1-1.3,3.3-3c0.2-1.5-0.6-2.7-2.3-3.6
		c0-0.4,0-0.8,0-1.2c0-0.7-0.1-1.3-0.1-2c0-0.7,0-1.4,0-2.1C42.4,2.6,39.9,0.1,37,0C34.6,0,32.1,0,29.7,0c-2.7,0.1-5.1,2.2-5.4,4.8
		c-0.2,2-0.2,4-0.3,6.1c-1.8,1-2.6,2.2-2.3,3.7c0.3,1.6,1.3,2.6,3.3,2.9c0,0,0.1,0.1,0.1,0.1c0.3,2.2,1.3,4.1,3.1,5.5
		c0.1,0.1,0.2,0.2,0.2,0.3c0,0.6,0,1.1,0,1.7c0,0.1-0.1,0.2-0.1,0.2c-0.9,0.4-1.9,0.9-2.8,1.2c-1,0.3-2.1,0.5-3.2,0.7
		c-1.2,0.2-2.3,0.6-3.3,1.4c-1.2,1-1.9,2.3-2.2,3.9c-0.5-0.3-0.9-0.7-1.3-0.9c-0.3-0.2-0.4-0.4-0.4-0.7c0-3.9,0-7.8,0-11.7
		c0-0.4,0.1-0.6,0.5-0.9c3.7-2.4,5.4-6.9,4.1-11.1c-0.3-1-0.9-1.2-1.7-0.4c-1.7,1.6-3.3,3.3-5,4.9c-0.7,0.7-1.3,0.7-2,0
		C10,10.9,9.2,10,8.3,9.2C7.5,8.4,7.5,7.8,8.3,7c1.7-1.7,3.3-3.3,5-5c0.6-0.6,0.4-1.3-0.4-1.6C11.5,0,10.2-0.1,8.8,0.1
		C4.6,0.6,1.2,3.7,0.2,7.8c-0.9,4.1,0.8,8.3,4.4,10.6C4.9,18.6,5,18.8,5,19.1c0,3.9,0,7.8,0,11.7c0,0.4-0.1,0.6-0.4,0.8
		C0.9,34-0.8,38.6,0.4,42.7c0.3,1,0.9,1.2,1.7,0.4c1.7-1.6,3.3-3.3,5-4.9c0.7-0.7,1.3-0.7,2,0c0.9,0.9,1.7,1.7,2.6,2.6
		c0.8,0.8,0.8,1.4,0,2.1c-1.6,1.7-3.3,3.3-4.9,5c-0.7,0.7-0.6,1.4,0.5,1.7c3.4,0.9,6.5,0.2,9.2-2c0.1-0.1,0.3-0.2,0.4-0.3
		c0.1,0.2,0.2,0.3,0.2,0.5c0.6,1.1,1.5,1.9,2.7,2.1c1.2,0.2,2.5,0.2,3.7,0.1c1.9-0.3,3.7-0.7,5.6-1.1c1.1-0.2,2.2-0.5,3.3-0.7V50
		h1.7v-1.9c1.5,0.3,2.9,0.6,4.4,0.9c2.4,0.5,4.8,1.2,7.3,1c2.3-0.1,4.1-1.9,4.1-4.2C50,41.4,50,37,50,32.6z M41.7,12.5
		c0.9,0,1.6,0.7,1.6,1.6c0,0.9-0.6,1.6-1.6,1.7V12.5z M25,15.8c-1-0.1-1.6-0.7-1.6-1.6c0-0.9,0.7-1.6,1.6-1.6V15.8z M16.7,44.6
		c0,0.2-0.1,0.4-0.2,0.6c-1.9,2.2-4.2,3.3-7.1,3.1c-0.1,0-0.3-0.1-0.4-0.1C9,48,9.1,47.9,9.3,47.8c1.2-1.2,2.5-2.5,3.7-3.7
		c1.3-1.3,1.3-3,0-4.3c-0.9-0.9-1.9-1.9-2.8-2.8c-1.2-1.2-2.9-1.2-4.2,0c-1.3,1.3-2.5,2.5-3.8,3.8C2.1,40.9,2,41,1.8,41.1
		c-0.2-1.4-0.1-2.7,0.4-3.9c0.7-2,1.9-3.5,3.8-4.5c0.5-0.3,0.8-0.7,0.8-1.3c0-4.3,0-8.6,0-13c0-0.6-0.2-1-0.7-1.2
		c-3.1-1.7-4.7-5.1-4.2-8.7c0.5-3.3,3.3-6.1,6.7-6.8c0.9-0.2,1.7-0.1,2.6-0.2c0,0.1,0,0.1,0,0.2c-0.1,0.1-0.2,0.3-0.3,0.4
		C9.5,3.4,8.3,4.7,7.1,5.9c-1.3,1.3-1.3,3,0,4.3C8,11.2,8.9,12.1,9.8,13c1.3,1.3,3,1.3,4.3,0c1.2-1.2,2.5-2.5,3.7-3.7
		C17.9,9.1,18,9,18.2,8.9c0.2,1.1,0.1,2.1-0.1,3.1c-0.6,2.3-1.9,4.1-4,5.2c-0.6,0.3-0.8,0.7-0.8,1.3c0,4.3,0,8.6,0,13
		c0,0.6,0.2,0.9,0.7,1.2c0.8,0.6,1.6,1.3,2.4,2c0.2,0.1,0.2,0.4,0.2,0.6C16.7,38.4,16.7,41.5,16.7,44.6z M40.8,34.9
		c0.2-2.1,0.3-4.2,0.5-6.3c0-0.1,0-0.3,0.1-0.5c1.2,0.2,2.5,0.3,3.7,0.6c1.6,0.3,2.6,1.4,3,2.9c0.1,0.3,0.1,0.5,0.1,0.8
		c0,1.7,0,3.4,0,5.2h-4.1V35h-1.7v2.4h-6.7v1.7h4.8c0,0.1,0,0.1,0,0.2c-0.7,0.2-1.3,0.6-2.1,0.7c-1.5,0.2-3,0.3-4.5,0.4
		c-0.4-2.5,1.1-4.5,1.6-6.8c0.5,0.3,0.9,0.5,1.4,0.8c0.7,0.4,1.5,0.8,2.2,1.3C40.2,36,40.8,35.7,40.8,34.9z M48.3,39.2v2.4
		c-2.4-0.2-4.8-0.4-7.2-0.6c0,0,0-0.1,0-0.1c1.3-0.6,2.7-1.2,4-1.7c0.2-0.1,0.5-0.1,0.8-0.1C46.6,39.2,47.5,39.2,48.3,39.2z
		 M31.6,30.8c-0.5-1.5-0.9-2.9-1.4-4.4c-0.2-0.7-0.2-1.3-0.3-2.2c2.3,0.9,4.5,1,6.9,0c-0.1,0.7-0.1,1.4-0.3,2
		c-0.4,1.5-0.9,3-1.4,4.6H31.6z M39.6,27.6c0.1,0,0.2,0.2,0.1,0.3c-0.2,1.9-0.3,3.8-0.5,5.7c-1-0.6-1.9-1.1-2.8-1.6
		c0.5-1.7,1-3.3,1.6-5.1C38.6,27.2,39.1,27.4,39.6,27.6z M26,4.8c0.3-1.8,2-3.1,3.9-3.1c2.3,0,4.6,0,6.9,0c2.1,0,3.9,1.7,4,3.8
		c0.1,0.9,0,1.9,0,2.8h-3.3c0-0.8,0-1.5,0-2.2c0-0.8-0.3-1.1-1.1-1.1c-2.1,0-4.1,0-6.2,0c-0.8,0-1.1,0.3-1.1,1.1c0,0.7,0,1.5,0,2.2
		h-3.4C25.8,7.1,25.8,5.9,26,4.8z M35.8,6.7v1.6h-5V6.7H35.8z M26.7,16.8c0-1.1,0-2.2,0-3.3c0.6,0,1.1-0.1,1.7-0.1
		c0,0.7,0.1,1.3,0.9,1.5c0.5,0.2,0.9,0,1.2-0.3c0.5-0.5,0.5-1,0.2-1.6c1.8-0.3,3.6-0.3,5.4,0c-0.2,0.5-0.4,1.1,0,1.5
		c0.2,0.2,0.5,0.5,0.9,0.5c0.8,0.2,1.3-0.4,1.4-1.6c0.5,0,1.1,0,1.7,0.1c-0.1,1.6,0,3.3-0.3,4.8c-0.7,3.2-3.9,5.4-7.1,5
		C29.3,22.9,26.7,20.1,26.7,16.8z M27.1,27.7c0.5-0.3,1-0.5,1.5-0.7c0.2,0.7,0.4,1.4,0.6,2.1c0.3,0.9,0.5,1.7,0.8,2.6
		c0,0.1,0,0.4-0.1,0.4c-0.8,0.5-1.7,1-2.6,1.5c-0.2-1.9-0.3-3.7-0.5-5.6C26.9,28,27,27.8,27.1,27.7z M18.5,32.4
		c0.1-1.5,1.1-2.6,2.5-3.1c1.4-0.5,2.8-0.7,4.3-1.1c0.1,1.4,0.2,2.7,0.3,4c0.1,0.8,0.1,1.7,0.2,2.5c0.1,0.9,0.7,1.2,1.4,0.8
		c1.1-0.6,2.1-1.2,3.2-1.8c0.1,0,0.2-0.1,0.3-0.1c0.1,0.3,0.2,0.6,0.3,0.9c0.4,1.1,0.8,2.2,1.1,3.3c0.2,0.8,0.2,1.7,0.3,2.5
		c-1.7-0.1-3.3-0.2-4.8-0.4c-0.8-0.1-1.5-0.7-2.3-0.9c-1.1-0.3-1.6-0.9-1.4-2.1c0.1-0.6,0-1.3,0-2h-1.6v2.6h-4.1
		C18.4,35.8,18.3,34.1,18.5,32.4z M26.5,47.6c-1.7,0.4-3.4,0.7-5.1,0.7c-1.9,0-3.3-1.1-3-3.4c0.9,0,1.9,0,2.8,0
		c0.1,0,0.3,0.2,0.4,0.3c0.8,1.2,2,1.5,3.4,1.4c1.3-0.1,2.7-0.1,4.1,0.4C28.2,47.3,27.3,47.5,26.5,47.6z M48.3,46.1
		c-0.1,1.3-1.2,2.2-2.5,2.3c-2.1,0.1-4.1-0.4-6.1-0.8c-3.9-0.8-7.9-1.7-11.8-2.4c-1.2-0.2-2.4-0.1-3.6-0.1c-0.4,0-0.7-0.1-1-0.4
		c-1.6-1.6-0.8-1.2-3-1.3c-0.6,0-1.2,0-1.9,0v-4.2c1.5,0.1,2.9-0.2,4.4,0.5c1.2,0.6,2.5,1.1,3.8,1.6c0.6,0.2,1.2,0.4,1.8,0.5
		c4.3,0.4,8.6,0.7,12.9,1c2.3,0.2,4.7,0.4,7.1,0.6C48.3,44.2,48.4,45.2,48.3,46.1z"/>
	<rect x="9.2" y="17.5" width="1.6" height="14.9"/>
	<path d="M36.1,18.6c-1.7,0.6-3.4,0.6-5.2,0.5v-1.6c1.6-0.1,3.1-0.3,4.8-0.4C35.7,17.6,35.9,18.1,36.1,18.6z"/>
	<rect x="29.2" y="36.7" width="1.6" height="1.6"/>
</g>
</svg>
