<svg version="1.1" id="Camada_1" xmlns="http://www.w3.org/2000/svg" xmlns:xlink="http://www.w3.org/1999/xlink" x="0px" y="0px"
	 viewBox="0 0 50 50" style="enable-background:new 0 0 50 50;" xml:space="preserve">
<g>
	<path d="M50,23.2c0-2.7-2.1-4.8-4.8-4.8c-0.8,0-1.4-0.3-1.7-1c-0.3-0.7-0.1-1.3,0.5-1.9c1.9-2,1.9-4.9,0-6.9
		c-0.8-0.8-1.6-1.7-2.5-2.5c-0.5-0.4-1.1-0.9-1.7-1.1c-1.9-0.7-3.7-0.4-5.2,1.1c-0.5,0.4-1,0.7-1.6,0.5c-0.8-0.2-1.2-0.8-1.2-1.7
		c-0.1-2.5-1.7-4.5-4.1-4.8C26.1-0.1,24.6,0,23.2,0c-2.7,0-4.8,2.1-4.9,4.8c0,0.8-0.3,1.4-1,1.7C16.6,6.9,16,6.6,15.4,6
		c-0.9-0.9-2-1.4-3.5-1.4c-1.2,0-2.4,0.5-3.4,1.4C7.7,6.9,6.9,7.7,6.1,8.6c-0.4,0.5-0.8,1-1,1.6c-0.8,2-0.4,3.7,1.1,5.3
		c0.4,0.4,0.7,0.9,0.5,1.5c-0.2,0.8-0.8,1.3-1.7,1.3c-2.8,0.1-4.9,2.2-4.9,5c0,1.1,0,2.3,0,3.4c0,2.8,2.1,4.9,4.9,5
		c0.8,0,1.3,0.3,1.6,1c0.3,0.7,0.1,1.3-0.4,1.8c-2,2.1-1.9,5,0.1,7c0.8,0.8,1.5,1.6,2.3,2.3c2,2,4.9,2,7,0.1
		c0.6-0.5,1.2-0.8,1.9-0.4c0.7,0.3,0.9,0.9,1,1.6c0,2.5,1.7,4.5,4.1,4.8c1.7,0.2,3.4,0.1,5,0.1c0.2,0,0.4-0.1,0.6-0.1
		c2.2-0.6,3.6-2.4,3.6-4.7c0-0.9,0.5-1.5,1.3-1.7c0.6-0.1,1.1,0.1,1.6,0.6c1.5,1.5,3.6,1.8,5.5,1c1.1-0.5,4.4-3.7,4.9-4.9
		c0.9-1.9,0.5-4-1-5.5c-0.4-0.5-0.7-1-0.5-1.6c0.2-0.8,0.8-1.2,1.7-1.2c2.7-0.1,4.8-2.2,4.9-4.9C50,25.6,50,24.4,50,23.2z
		 M46.7,26.5c0,1.2-0.6,1.8-1.8,1.8c-2.7,0.1-4.9,2.3-4.9,5c0,1.3,0.5,2.4,1.4,3.3c0.9,0.9,0.9,1.7,0,2.6c-0.7,0.7-1.4,1.5-2.2,2.2
		c-0.8,0.8-1.6,0.8-2.4,0c-1-1-2.2-1.4-3.3-1.5c-2.8,0-5,2.2-5.1,4.8c0,1.3-0.6,1.8-1.9,1.8c-1,0-2,0-3.1,0c-1,0-1.7-0.6-1.7-1.7
		c-0.1-2.1-1-3.7-3-4.6c-2-0.8-3.8-0.4-5.4,1c-0.8,0.8-1.7,0.8-2.5,0c-0.7-0.7-1.5-1.4-2.2-2.2c-0.9-0.9-0.9-1.7,0-2.6
		c2.6-2.8,1.4-7.2-2.3-8.2c-0.4-0.1-0.9-0.1-1.3-0.2c-0.9,0-1.6-0.7-1.6-1.6c0-1.1,0-2.2,0-3.3c0-1.1,0.6-1.7,1.7-1.7
		c2.8-0.1,5-2.2,4.9-5c0-1.3-0.5-2.4-1.4-3.3c-0.9-1-0.9-1.7,0.1-2.7C9.4,10,10,9.3,10.7,8.6c0.9-0.9,1.7-0.9,2.6,0
		c2.8,2.6,7.2,1.3,8.2-2.3c0.1-0.4,0.1-0.9,0.2-1.3c0-1,0.7-1.6,1.7-1.6c1.1,0,2.1,0,3.2,0c1.2,0,1.8,0.6,1.8,1.8
		c0.1,2.8,2.3,4.9,5,4.9c1.3,0,2.4-0.5,3.3-1.4c0.9-0.9,1.7-0.9,2.6,0c0.7,0.7,1.5,1.4,2.2,2.2c0.8,0.8,0.8,1.6,0,2.4
		c-1.5,1.6-1.9,3.4-1.1,5.4c0.8,2,2.4,3,4.6,3c1,0,1.6,0.7,1.6,1.7C46.7,24.4,46.7,25.5,46.7,26.5z"/>
	<path d="M25,13.4c-6.4,0-11.6,5.3-11.6,11.7c0,6.5,5.2,11.7,11.8,11.6c6.3,0,11.6-5.3,11.6-11.6C36.6,18.6,31.4,13.4,25,13.4z
		 M25,33.3c-4.6,0-8.4-3.7-8.4-8.3c0-4.6,3.7-8.4,8.4-8.4c4.6,0,8.3,3.8,8.3,8.4C33.3,29.6,29.6,33.3,25,33.3z"/>
</g>
</svg>
