<svg version="1.1" id="Camada_1" xmlns="http://www.w3.org/2000/svg" xmlns:xlink="http://www.w3.org/1999/xlink" x="0px" y="0px"
	 viewBox="0 0 50 50" style="enable-background:new 0 0 50 50;" xml:space="preserve">
<g>
	<path d="M44.6,7c-3.1,0-6.2,0-9.4,0c-0.7,0-1.4,0.2-2,0.6c-0.2,0.1-0.5,0.2-0.7,0.2c-2.4,0-4.8,0-7.3,0c-0.5,0-1.1,0.1-1.5,0.3
		c-0.6,0.4-1.2,0.4-1.9,0.4c-0.8,0-1.7,0-2.5,0c-0.1,0-0.3,0-0.4,0c0-0.1,0-0.1,0-0.1c0-1.2,0-2.4,0-3.7c0-1.9-1.3-3.2-3.2-3.2
		c-2,0-4,0-6,0c-1.9,0-3.2,1.3-3.2,3.2c0,2.6,0,5.3,0,7.9c0,1.8,0.7,3.3,2,4.5c0.2,0.2,0.4,0.3,0.6,0.5c-0.4,0.9-0.7,1.2-1.5,1.6
		c-1.2,0.6-2.4,1.2-3.6,1.8c-1.4,0.7-2.2,1.9-2.2,3.5c0,1.4,0,2.7,0,4.1c0,0.2,0,0.3,0,0.5c0.5,2.5,1,4.9,1.6,7.3
		c0.5,2.2,0.8,4.3,0.7,6.6c-0.1,1.4,0,2.9,0,4.3c0,0.8,0.3,1,1,1h15.1c0.8,0,1-0.3,1-1c0-2.4,0-4.7,0-7.1c0-0.2,0-0.5,0.1-0.7
		c0.3-1.7,0.7-3.5,1-5.2c0.1-0.6,0.3-1.2,0.4-1.8c0.4,0,0.8,0.1,1.1,0.1c1.7,0,3.3,0,5,0c0.5,0,0.8-0.2,1-0.5
		c3.5-5.1,7.1-10.2,10.7-15.3c0.1-0.2,0.2-0.5,0.3-0.8c0-0.5,0-0.9,0-1.4c1.3,0,2.6,0,3.9,0c2.2,0,3.9-1.7,3.9-3.9
		C48.5,8.8,46.8,7,44.6,7z M32.9,14.1c0,0.9,0,1.8,0,2.8c0,0.1-0.1,0.2-0.2,0.2c-2.3,2.5-4.5,5-6.8,7.5c0,0-0.1,0-0.1,0
		c-0.2-0.2-0.4-0.5-0.7-0.8c1.1-1.6,1.7-3.6,3.3-5c0.9-0.8,1.6-1.6,2.4-2.4c0.4-0.4,0.6-0.7,0.5-1.3c0-0.4,0-0.7,0-1.1H32.9z
		 M26.6,18.5c-0.9-0.7-1.8-1.4-2.7-2.2c0.5-0.7,1-1.4,1.5-2.1c0-0.1,0.2-0.1,0.3-0.1c1.3,0,2.7,0,4,0c0.1,0.7,0.1,1.3-0.5,1.8
		C28.3,16.7,27.5,17.6,26.6,18.5z M25.2,9.4c2,0,4,0,6,0c0.1,0,0.3,0,0.4,0c-0.4,1-0.4,2,0,3.1c-0.1,0-0.3,0-0.4,0h-6
		c-1,0-1.7-0.7-1.7-1.6C23.5,10,24.2,9.4,25.2,9.4z M23.8,13.8c-1.5,2-2.9,4-4.4,6.1c-0.8-0.3-1.5-0.5-2.2-0.9
		c-0.4-0.2-0.6-0.7-0.9-1.1c1.5-1.2,2.3-2.7,2.6-4.5c1.4,0,2.7,0,4,0C23.2,13.3,23.5,13.6,23.8,13.8z M13.4,22.2
		c0.3,0.3,0.6,0.6,0.8,0.8c0.6,0.6,1.1,0.5,1.5-0.3c0.4-0.8,0.8-1.5,1.2-2.3c0.5,0.2,1,0.4,1.5,0.6c-0.1,0.2-0.2,0.3-0.3,0.4
		c-1,1.4-2.1,2.8-3.1,4.3c-0.4,0.7-0.9,0.8-1.6,0.6V22.2z M13.5,18.9c0.3,0,0.5-0.1,0.7-0.2c0.2-0.1,0.6-0.2,0.7-0.1
		c0.3,0.2,0.4,0.6,0.6,0.9c0,0.1,0,0.2,0,0.3c-0.3,0.5-0.5,1-0.8,1.5C13.5,20.3,13.3,20,13.5,18.9z M22.1,10.2
		c0,0.3-0.1,0.5-0.1,0.8c0,0.2,0,0.5,0.1,0.8h-2.9c-0.6,0-1.3,0-1.9,0c-0.5,0-0.8-0.4-0.8-0.8c0-0.4,0.3-0.8,0.7-0.8
		C18.9,10.1,20.4,10.2,22.1,10.2z M13.7,3.1c0.7,0,1.4,0,2,0c0.9,0,1.6,0.7,1.6,1.6c0,0.5,0,1,0,1.5h-6.2
		C10.8,4.4,11.8,3.1,13.7,3.1z M8,4.3c0.1-0.7,0.8-1.2,1.5-1.2h0.8c-0.7,1-0.8,2-0.8,3.1H8C8,5.6,7.9,4.9,8,4.3z M8,12.8
		c-0.1-1.6,0-3.3,0-5h9.3v0.7c-0.8,0.1-1.4,0.3-1.8,1C15.2,10,15,10.5,15,11c0,1.2,0.8,2,2.3,2.3c-0.1,1.2-0.7,2.3-1.7,3
		c-1.5,1.2-3.2,1.4-4.9,0.6C9,16.1,8,14.7,8,12.8z M10.5,21.4c-0.3-0.6-0.7-1.1-0.8-1.7c-0.1-0.3,0.3-0.7,0.5-1
		c0.1-0.1,0.3-0.1,0.5,0c0.3,0.1,0.7,0.2,1,0.3C12.2,20.2,11.1,20.6,10.5,21.4z M3.7,31c0.2,0.2,0.3,0.3,0.5,0.4c1,0.8,2,1.7,3,2.6
		c0.3,0.3,0.7,0.4,1.1,0.4c1.2,0,2.3,0,3.5,0v4.7H5.5C4.9,36.4,4.3,33.8,3.7,31z M19.6,46.9h-14v-6.2h14V46.9z M20.5,35.4
		c-0.2,1.1-0.4,2.2-0.7,3.3c0,0.1-0.2,0.3-0.3,0.3c-2,0-4,0-6.1,0v-4.7h0.8c1.5,0,2.9,0,4.3,0c0.5,0,0.9-0.2,1.1-0.7
		c0.2-0.4,0.4-0.7,0.6-1.1c0.2-0.4,0.4-0.5,0.8-0.3C20.9,33.4,20.7,34.4,20.5,35.4z M20.5,29.1c-0.6,1.1-1.3,2.3-1.9,3.4
		c-0.1,0.3-0.3,0.3-0.6,0.3c-3.1,0-6.3,0-9.4,0c-0.2,0-0.5-0.1-0.6-0.2c-1.5-1.3-3-2.5-4.4-3.8c-0.1-0.1-0.3-0.4-0.3-0.6
		c0-1.2,0-2.4,0-3.6c0-0.9,0.4-1.6,1.1-2c1.3-0.7,2.6-1.3,4-2c0.4,0.8,0.8,1.5,1.1,2.2c0.4,0.8,0.9,0.8,1.5,0.2
		c0.3-0.3,0.5-0.5,0.8-0.7v4.2H9.5v1.6h1.2c1.3,0,2.6,0,3.9,0c0.6,0,0.9-0.2,1.3-0.7c2.3-3.2,4.5-6.3,6.8-9.5
		c0.1-0.1,0.2-0.3,0.3-0.4c0.8,0.7,1.6,1.3,2.5,2c0.3,0.2,0.1,0.4,0,0.6C23.8,23.1,22.1,26.1,20.5,29.1z M36.3,20.3
		c-2.5,3.5-4.9,7.1-7.4,10.6c-0.2,0.3-0.4,0.4-0.7,0.4c-1,0-1.9,0-2.9,0c-1.3,0.1-2.5-0.2-3.7-0.4c-0.1,0-0.1,0-0.2-0.1
		c1-1.8,2-3.6,3-5.4c0.3,0.3,0.5,0.6,0.8,0.9c0.5,0.5,0.9,0.5,1.4,0c2.3-2.5,4.6-5.1,6.9-7.7c0.1-0.1,0.1-0.2,0.3-0.3
		c0.9,0.6,1.8,1.1,2.7,1.7C36.4,20,36.4,20.2,36.3,20.3z M38.8,16.7c-0.5,0.6-0.9,1.2-1.3,1.9c-1-0.6-1.9-1.1-2.8-1.7
		c-0.1-0.1-0.2-0.2-0.2-0.3c0-0.6,0-1.2,0-1.7h4.7C39.1,15.5,39.3,16.1,38.8,16.7z M41.4,13.3c-0.2,0-0.3,0-0.4,0
		c-1.9,0-3.8,0-5.7,0c-1.4,0-2.5-1-2.5-2.3c0-1.3,1.1-2.3,2.5-2.3H41c0.1,0,0.3,0,0.4,0C40.5,10.2,40.4,11.7,41.4,13.3z M44.6,13.3
		c-1.3,0-2.3-1.1-2.3-2.4c0-1.3,1.1-2.3,2.3-2.3c1.3,0,2.3,1.1,2.3,2.4C46.9,12.2,45.9,13.3,44.6,13.3z"/>
	<path d="M11.1,14.8v-1.4c0.4-0.1,1-0.1,1.3-0.4c0.3-0.3,0.3-0.8,0.4-1.3h1.4C14.5,13.4,13.4,15.1,11.1,14.8z"/>
	<path d="M11.8,10.2c0,0.4-0.4,0.8-0.8,0.8c-0.4,0-0.8-0.4-0.8-0.8c0-0.4,0.4-0.8,0.8-0.8C11.5,9.4,11.9,9.7,11.8,10.2z"/>
</g>
</svg>
